<svg width="32" height="32" viewBox="0 0 32 32" fill="none" xmlns="http://www.w3.org/2000/svg">
<g id="heart 1">
<path id="Vector" d="M27.7866 6.14666C27.1056 5.46533 26.297 4.92485 25.4071 4.5561C24.5171 4.18735 23.5633 3.99756 22.5999 3.99756C21.6366 3.99756 20.6827 4.18735 19.7928 4.5561C18.9028 4.92485 18.0943 5.46533 17.4133 6.14666L15.9999 7.55999L14.5866 6.14666C13.211 4.77107 11.3453 3.99827 9.39993 3.99827C7.45456 3.99827 5.58886 4.77107 4.21327 6.14666C2.83768 7.52225 2.06488 9.38795 2.06488 11.3333C2.06488 13.2787 2.83768 15.1444 4.21327 16.52L5.6266 17.9333L15.9999 28.3067L26.3733 17.9333L27.7866 16.52C28.4679 15.839 29.0084 15.0304 29.3772 14.1405C29.7459 13.2505 29.9357 12.2966 29.9357 11.3333C29.9357 10.37 29.7459 9.41613 29.3772 8.52619C29.0084 7.63624 28.4679 6.82767 27.7866 6.14666V6.14666Z" stroke="#20BFA9" stroke-width="3" stroke-linecap="round" stroke-linejoin="round"/>
</g>
</svg>
